<?xml version="1.0" encoding="utf-8"?>
<!-- Generator: Adobe Illustrator 19.2.1, SVG Export Plug-In . SVG Version: 6.00 Build 0)  -->
<svg version="1.1" id="Layer_1" xmlns="http://www.w3.org/2000/svg" xmlns:xlink="http://www.w3.org/1999/xlink" x="0px" y="0px"
	 viewBox="0 0 595.3 453" style="enable-background:new 0 0 595.3 453;" xml:space="preserve">
<style type="text/css">
	.st0{fill:#414042;}
	.st1{fill:#3A1F5B;}
</style>
<g>
	<path class="st0" d="M161.9,252.8l-6.5,7.2v12.1h-12.5V223h12.5v21.3l18.8-21.3h14.4l-18.2,20.3l19.4,28.8h-14.9L161.9,252.8z"/>
	<path class="st0" d="M243.8,247.5c0,14.3-11.4,25.2-26.6,25.2c-15.1,0-26.5-10.8-26.5-25.2c0-14.3,11.4-24.9,26.5-24.9
		C232.4,222.6,243.8,233.3,243.8,247.5z M203.4,247.6c0,8.3,6.4,14.7,13.9,14.7c7.6,0,13.6-6.4,13.6-14.7c0-8.3-6-14.5-13.6-14.5
		C209.7,233,203.4,239.3,203.4,247.6z"/>
	<path class="st0" d="M271.5,223c15.4,0,26.1,10,26.1,24.5c0,14.5-10.8,24.5-26.6,24.5h-20.6V223H271.5z M262.8,262.1h8.9
		c7.6,0,13.1-5.9,13.1-14.5c0-8.7-5.8-14.7-13.7-14.7h-8.3V262.1z"/>
	<path class="st0" d="M316.6,232.8v9.7H340v9.8h-23.4v9.9h26.7v9.8h-39.2V223h38.4v9.8H316.6z"/>
	<path class="st1" d="M363.3,232.8h-9.5v15.6h9.5c5.4,0,8.6-2.7,8.6-7.9C371.9,235.4,368.7,232.8,363.3,232.8z M363.7,258.3h-9.8
		v13.8H371L363.7,258.3z M397.6,261.7V223h-34.3c7,0,12.4,1.8,15.9,5.2c3,2.9,4.5,6.9,4.5,11.9c0,5.3-1.6,9.5-4.5,12.6
		c-1.2,1.3-2.7,2.3-4.4,3.2l4.4,6.9l5.9,9.3h33.3v-10.5H397.6z"/>
	<path class="st1" d="M439,263.1l-3.6,9h-12.8l21.2-49.1h12.8l20.7,49.1H464l-3.5-9H439z M449.8,235.4l-7.2,18.2h14.2L449.8,235.4z"
		/>
	<path class="st1" d="M505.1,223c11,0,18,4.8,18,12.3c0,5.2-3.2,9.3-8.4,10.8c6.2,1.2,10.1,6,10.1,12.4c0,8.3-7.3,13.6-18.9,13.6
		h-24.1V223H505.1z M494.3,242.7h10.1c3.6,0,6-2,6-5.1c0-3.2-2.3-5-6-5h-10.1V242.7z M494.3,262.5h10.1c4.6,0,7.5-2,7.5-5.5
		c0-3.3-2.9-5.3-7.5-5.3h-10.1V262.5z"/>
	<path class="st1" d="M570.3,227.9l-4.7,9.7c-5.2-3-11.7-5.1-15.7-5.1c-3.2,0-5.4,1.2-5.4,3.6c0,8.5,26,3.6,26,21.4
		c0,9.8-8.7,15-19.6,15c-8.2,0-16.6-3.1-22.4-7.9l4.8-9.6c5,4.4,12.6,7.4,17.7,7.4c3.9,0,6.4-1.5,6.4-4.3c0-8.7-26-3.5-26-20.9
		c0-9,7.8-14.8,19.6-14.8C558,222.5,565.2,224.6,570.3,227.9z"/>
	<path class="st1" d="M118.9,208.2h-22c-1.2,2.4-3.7,4.1-6.6,4.1c-2.9,0-5.4-1.7-6.6-4.1H41.4c-2.1,0-3.8,1.7-3.8,3.8v70.3
		c0,2.1,1.7,3.8,3.8,3.8h77.5c2.1,0,3.8-1.7,3.8-3.8V212C122.7,209.9,121,208.2,118.9,208.2z M86.1,225.7c0.4-0.5,0.9-0.8,1.5-0.8
		h7.4c1.5,0,2.4,1.7,1.6,2.9l-8,12.1l-6.2-9L86.1,225.7z M78.1,211.3c2.2,0,4,1.8,4,4c0,2.2-1.8,4-4,4c-2.2,0-4-1.8-4-4
		C74.2,213.1,75.9,211.3,78.1,211.3z M95.8,275.3H63.5c-4.3,0-6.9-4.7-4.6-8.4l11.5-18.3l2.9,4.1l3.5,4.9l-6,8.6h17.5l-24.9-37.3
		c-0.1-0.1-0.1-0.2-0.2-0.3c-0.5-1.1,0.3-2.4,1.6-2.4h7.6c0.6,0,1.1,0.3,1.4,0.8l26.5,39.9C102.8,270.5,100.2,275.3,95.8,275.3z"/>
	<circle class="st1" cx="90.3" cy="204.9" r="4.3"/>
	<circle class="st1" cx="78.4" cy="191.6" r="5.6"/>
</g>
</svg>
